<svg xmlns="http://www.w3.org/2000/svg" width="70" height="70" fill="none"><path fill="#2196F3" d="M69.9432 9.89639c-.1377-.42123-.5016-.72913-.9415-.79339l-4.179-.60786-1.8702-3.78703c-.3919-.79804-1.6998-.79804-2.0918 0l-1.8702 3.78703-4.1791.608c-.4399.06412-.8038.37106-.9427.79339-.1365.42237-.0234.88667.2951 1.19587l3.0253 2.9483-.714 4.1627c-.0746.4375.105.8797.4632 1.1411.3629.2637.8365.2963 1.2297.0886l3.7381-1.9659 3.738 1.9659c.1704.0898.3583.1341.5438.1341.2414 0 .483-.0746.6861-.2228.3593-.2613.5389-.7036.4632-1.1411l-.714-4.1628 3.0252-2.9482c.3169-.3104.4314-.7736.2948-1.19591Zm-5.3876 2.90271c-.2741.2672-.4002.6545-.3349 1.0325l.4177 2.4372-2.1886-1.1504c-.1703-.0898-.357-.1341-.5437-.1341-.1867 0-.3722.0443-.5438.1341l-2.1887 1.1504.4176-2.4372c.0654-.378-.0607-.7641-.3348-1.0325l-1.7722-1.7266 2.4478-.3559c.3803-.0548.7082-.294.8785-.6382l1.0943-2.21669 1.0943 2.21669c.1704.3441.4983.5834.8786.6382l2.4477.3559-1.7698 1.7266ZM57.1669 44.8923h-2.3334v2.3334h2.3334v-2.3334ZM57.1669 49.5591h-2.3334v2.3334h2.3334v-2.3334ZM59.5004 47.2257H57.167v2.3334h2.3334v-2.3334ZM54.8337 47.2257h-2.3335v2.3334h2.3335v-2.3334ZM49.0003 57.7259h-2.3334v2.3334h2.3334v-2.3334ZM49.0003 62.3926h-2.3334v2.3334h2.3334v-2.3334Z"/><path fill="#2196F3" d="M51.3337 60.0593h-2.3335v2.3334h2.3335v-2.3334ZM46.6668 60.0593h-2.3334v2.3334h2.3334v-2.3334ZM35 53.0592h-2.3334v2.3334H35v-2.3334ZM35 57.7259h-2.3334v2.3334H35v-2.3334ZM37.3334 55.3925H35v2.3334h2.3334v-2.3334ZM32.6665 55.3925h-2.3334v2.3334h2.3334v-2.3334ZM12.8331 13.3918h-2.3335v2.3334h2.3335v-2.3334ZM12.8331 18.0587h-2.3335v2.3334h2.3335v-2.3334Z"/><path fill="#2196F3" d="M15.1663 15.7252h-2.3334v2.3335h2.3334v-2.3335ZM10.4996 15.7252H8.16614v2.3335h2.33346v-2.3335Z"/><path fill="#212121" d="M54.0635 30.9738c-.6288-.8482-1.5516-1.3941-2.5993-1.5412-1.0524-.1493-2.0908.1271-2.9308.77l-2.7382 2.0988-.0012.0012-4.1512 3.0999-2.9704-1.183c5.2967-2.3765 8.9987-7.6745 8.9987-13.8253 0-8.3628-6.831-15.16681-15.2275-15.16681-8.3966 0-15.2275 6.80401-15.2275 15.16681 0 3.0311.9065 5.8498 2.4501 8.2216l-6.0458-.0525h-.0105c-.0188 0-.0338.0093-.0513.0105-.1155.0047-.2288.0281-.3395.0677-.028.0105-.0571.0164-.0839.0291-.014.0059-.0281.007-.042.014l-7.07245 3.4918c-.00123 0-.00232 0-.00232.0011L1.8766 34.1693c-.04553.0198-.09215.0466-.13768.077-1.6509 1.0989-2.21323 3.2573-1.30896 5.0213.4818.938 1.30199 1.6288 2.31003 1.9449.38857.1212.78519.1808 1.1795.1808.63356 0 1.26125-.1551 1.83629-.4619l3.03576-1.6147 4.95256-2.5574 2.9681-.0175L4.80844 48.5884c-.00109.0012-.00232.0012-.00355.0023l-2.92842 2.9167C1.18466 52.1958.8043 53.1092.8043 54.0835c0 .973.38036 1.8888 1.07217 2.5784.71053.707 1.64502 1.0617 2.57951 1.0617.93572 0 1.86897-.3547 2.58184-1.0617l2.87469-2.8631 3.80809-2.8432 1.9706 1.9623-3.8537 3.8373c-.0011.0012-.0023.0012-.0035.0023l-2.92844 2.9166c-.69181.6884-1.07216 1.6019-1.07216 2.5761 0 .9731.38035 1.8888 1.07216 2.5785.71054.7069 1.64624 1.0616 2.58074 1.0616.9345 0 1.8702-.3547 2.5818-1.0616l2.9296-2.9167 4.6865-4.6667c.0012-.0012.0012-.0023.0023-.0036l2.2086-2.1875-.0082-.0082c.0139-.0139.0338-.0187.0478-.0338l11.3006-12.3773 7.5928 1.0804c.0548.0082.1096.0116.1644.0116.1413 0 .2777-.0338.4095-.084.0386-.0139.0723-.0326.1086-.0512.042-.0211.0862-.0327.126-.0595l7.0293-4.6667c.0257-.0175.0396-.0455.0641-.0641.028-.0222.063-.0315.0886-.0561l2.7813-2.6052c1.4472-1.356 1.6467-3.5773.4636-5.1663ZM4.66024 38.8722c-.37913.203-.80966.2438-1.22146.1132-.40839-.1271-.73966-.4061-.9334-.7829-.35233-.686-.1482-1.5214.46895-1.9728l2.8736-1.3826.69181 2.0219.29053.8493-2.17003 1.1539Zm7.64996-3.9981-3.38687 1.75-.55877-1.6334-.40128-1.1737 4.43342-2.1888-.0865 3.2459Zm33.03-14.4822c0 2.009-.4795 3.9038-1.3102 5.5989l-9.1468-4.1546c-.0957-1.2541-.7466-2.352-1.7243-3.0357l3.2025-10.63197c5.2012 1.65445 8.9788 6.50667 8.9788 12.22337Zm-25.7883 0c0-7.076 5.7844-12.83356 12.8941-12.83356.5531 0 1.0943.04662 1.6299.1143L30.9433 18.0714c-.0419-.0013-.0816-.0129-.1248-.0129-2.2588 0-4.0963 1.8317-4.0963 4.0834s1.8375 4.0835 4.0963 4.0835c1.519 0 2.8315-.8388 3.5397-2.0663l8.4491 3.8385c-2.3509 3.164-6.1135 5.2279-10.3614 5.2279-7.1096 0-12.894-5.7576-12.894-12.8336Zm13.0295 1.75c0 .9649-.7911 1.7501-1.7629 1.7501-.9718 0-1.7629-.7852-1.7629-1.7501 0-.9648.7911-1.75 1.7629-1.75.9718 0 1.7629.7852 1.7629 1.75ZM5.39183 55.0075c-.5168.5121-1.3534.511-1.86897.0012-.24856-.2486-.38501-.5763-.38501-.9252 0-.3477.13645-.6755.38501-.9216l2.10454-2.0967 1.86201 1.854-2.09758 2.0883Zm7.03037 8.1668c-.5168.5122-1.3545.5134-1.8702.0013-.2486-.2486-.3851-.5763-.3851-.9252 0-.3477.1365-.6756.3851-.9217l2.1059-2.0977.8809.8763.9823.9777-2.0989 2.0893Zm7.6161-7.5881c-.0012.0011-.0023.0011-.0035.0023l-3.8606 3.8501-.8809-.8763-.9823-.9777 3.857-3.8395v-.0011c.0012-.0012.0023-.0012.0035-.0023.0875-.0875.1424-.1925.1961-.2963.0152-.0303.0443-.056.0572-.0875.0362-.0898.0419-.1866.056-.2812.007-.0538.0304-.1038.0304-.1588 0-.0782-.0281-.1539-.0443-.231-.014-.07-.014-.1412-.0409-.2088-.0443-.1096-.1202-.2064-.1995-.301-.0221-.0257-.0303-.0584-.0548-.0829h-.0012c-.0013-.0011-.0013-.0036-.0024-.0046l-3.5152-3.5001c-.0373-.0373-.0852-.0525-.1272-.0839-.0617-.0479-.1212-.0922-.1901-.1261-.0665-.0327-.1342-.0525-.2042-.0712-.0746-.0211-.1469-.0374-.2251-.0432-.0713-.0047-.1377.0023-.2088.0105-.0782.0093-.1516.0198-.2275.0443-.0736.0234-.1388.0595-.2065.098-.0432.0245-.0921.0327-.133.063l-3.87917 2.8958-1.97056-1.9624 5.24773-5.2197 9.5389 9.3814-2.0291 2.0102Zm14.9161-15.349c-.0337-.0046-.0653.0082-.0991.0059-.0852-.0046-.1668.0012-.2519.0152-.0665.0116-.1295.0245-.1926.0466-.0746.0257-.1423.0607-.2112.1027-.0653.0396-.1248.0816-.182.1341-.028.0245-.0618.0362-.0875.0641L23.6527 51.8621l-9.4677-9.3114 6.1975-6.1648c.4562-.455.4585-1.1935.0035-1.6509-.2298-.2298-.532-.343-.8341-.3418v-.0011l-4.8535.0292.0607-3.5164 6.7901.0584c2.7674 2.8304 6.6268 4.5956 10.8968 4.5956.9567 0 1.8901-.0991 2.7988-.2684.0875.07.1738.1413.2836.1856l5.2711 2.1.3336 1.659.3897 1.9366-6.5684-.9345Zm8.84.3897-.6848-3.4079 3.164-2.3626.8284 1.099 1.2425 1.6497-4.5501 3.0218Zm8.2111-6.1928-1.8329 1.7174-2.037-2.7044 1.8188-1.3941c.3394-.2613.7677-.3675 1.1877-.3127.4223.0595.7957.28 1.05.6218.4737.6382.3932 1.5284-.1866 2.072Z"/><path fill="#212121" d="m29.7545 40.5651-4.6877-4.6667c-.4538-.4538-1.1913-.4538-1.6463 0l-4.6865 4.6667c-.2193.2205-.343.5168-.343.8271 0 .3104.1225.6079.343.8272l4.6865 4.6667c.2275.2263.5263.3395.8238.3395s.5961-.1132.8225-.3395l4.6877-4.6667c.2193-.2193.3442-.5168.3442-.8272 0-.3103-.1238-.6078-.3442-.8271Zm-5.5102 3.8477-3.0334-3.0206 3.0334-3.0205 3.0345 3.0205-3.0345 3.0206ZM37.5468 11.0923l-.5635 2.2657c.1552.0386 3.8011.9883 3.8011 4.7006h2.3334c-.0001-4.4125-3.6436-6.4868-5.571-6.9663ZM43.1178 20.3919h-2.3334v2.3334h2.3334v-2.3334Z"/></svg>