<!-- Generated by IcoMoon.io -->
<svg version="1.1" xmlns="http://www.w3.org/2000/svg" width="1723" height="1024" viewBox="0 0 1723 1024">
<title></title>
<g id="icomoon-ignore">
</g>
<path d="M814.543 96.459h-2.22c-3.413-0.207-6.825-0.289-10.238-0.372h-7.4c-6.456 0-13.036 0.165-19.573 0.496-0.222-0.017-0.48-0.027-0.74-0.027s-0.519 0.010-0.774 0.029l0.034-0.002c-59.234 3.356-117.269 18.162-170.927 43.606l-7.031 3.389v359.882l16.447-5.58c14.432-4.961 29.81-9.424 45.722-13.557 39.312-10.519 84.563-16.859 131.195-17.479l0.382-0.004v47.283c-5.879 0.042-11.594 0.208-17.31 0.497h-1.357c-36.948 2.076-71.566 7.622-104.893 16.356l3.662-0.815c-42.004 10.516-82.521 26.305-120.6 46.995v-461.559c39.548-23.067 82.143-40.391 126.519-51.459 35.74-9.611 76.801-15.21 119.145-15.375h7.048c8.306 0.207 16.405 0.579 24.012 1.157 21.909 1.571 42.192 4.933 61.795 9.985l-2.379-0.52v46.54c-16.585-4.064-36.252-7.146-56.369-8.61l-1.197-0.070-1.182-0.1c-4.010-0.342-8.026-0.685-11.771-0.685zM896.45 144.033c10.32 0.785 21.010 1.157 31.825 1.157 44.617-0.169 87.79-6.025 128.934-16.878l-3.566 0.8c41.982-10.556 82.484-26.358 120.557-47.036v453.334c-39.569 23.053-82.175 40.376-126.56 51.458-35.738 9.573-76.799 15.157-119.136 15.335h-0.108c-0.87 0.007-1.898 0.012-2.927 0.012-31.080 0-61.25-3.893-90.050-11.219l2.519 0.543v-456.269c6.989 1.612 14.185 3.1 21.504 4.34 12.007 2.025 24.67 3.513 37.007 4.423zM1127.162 147.546l-16.447 5.539c-15.131 5.084-30.385 9.631-45.722 13.681-40.957 10.963-88.011 17.346-136.527 17.525h-0.109c-10.731 0-20.6-0.289-30.14-0.91l-13.115-0.868v370.215l11.266 0.991c10.443 0.91 21.216 1.364 32.072 1.364 36.303-0.153 72.447-4.832 107.606-13.928 32.254-8.189 60.239-18.528 86.774-31.39l-2.687 1.175 7.030-3.389v-360.005z"></path>
<path d="M580.873 734.881c-2.308-2.393-5.094-4.308-8.206-5.594l-0.161-0.059c-2.679-1.114-5.791-1.762-9.055-1.762-0.308 0-0.615 0.006-0.921 0.017l0.044-0.001c-0.109-0.002-0.237-0.002-0.365-0.002-3.677 0-7.183 0.73-10.382 2.053l0.18-0.066c-3.205 1.296-5.94 3.13-8.225 5.414v0c-2.321 2.354-4.129 5.169-5.304 8.267-1.198 2.934-1.894 6.338-1.894 9.905 0 0.107 0.001 0.214 0.002 0.32v-0.016 61.668c-0.146 4.345 0.683 8.668 2.427 12.647 1.456 3.16 3.556 5.977 6.168 8.267 2.464 2.076 5.357 3.571 8.47 4.382 2.999 0.842 6.097 1.273 9.209 1.281 0.067 0.001 0.147 0.001 0.226 0.001 3.529 0 6.874-0.793 9.864-2.21l-0.14 0.060c3.083-1.349 5.876-3.287 8.225-5.705 2.29-2.396 4.116-5.198 5.387-8.267 1.318-3.109 1.989-6.456 1.973-9.837v-6.901h-16.119v5.497c0.003 0.11 0.005 0.24 0.005 0.369 0 1.844-0.348 3.606-0.983 5.225l0.034-0.097c-0.553 1.36-1.348 2.517-2.34 3.469l-0.003 0.003c-0.953 0.775-2.077 1.383-3.303 1.758l-0.070 0.018c-1.002 0.346-2.158 0.556-3.36 0.578h-0.011c-0.284 0.035-0.614 0.055-0.948 0.055-1.186 0-2.313-0.252-3.33-0.706l0.052 0.021c-1.358-0.604-2.484-1.516-3.324-2.653l-0.016-0.022c-1.351-2.171-2.151-4.806-2.151-7.628 0-0.225 0.005-0.448 0.015-0.67l-0.001 0.032v-57.494c-0.006-0.185-0.010-0.402-0.010-0.62 0-3.128 0.732-6.086 2.034-8.71l-0.051 0.114c0.841-1.295 1.999-2.32 3.367-2.977l0.049-0.021c1.021-0.493 2.221-0.782 3.488-0.782 0.349 0 0.693 0.022 1.030 0.064l-0.040-0.004c0.090-0.003 0.196-0.005 0.302-0.005 1.353 0 2.633 0.314 3.771 0.873l-0.050-0.022c1.28 0.627 2.344 1.516 3.157 2.604l0.016 0.023c1.804 2.368 2.747 5.286 2.672 8.267v5.331h15.955v-6.282c0.033-3.69-0.637-7.352-1.975-10.788-1.261-3.37-3.090-6.259-5.396-8.691l0.011 0.011zM676.635 734.177c-5.14-4.34-11.626-6.737-18.338-6.778-3.283 0.013-6.539 0.601-9.622 1.736-3.131 1.122-6.019 2.833-8.511 5.042-2.622 2.366-4.734 5.242-6.187 8.479l-0.064 0.16c-1.624 3.766-2.422 7.841-2.344 11.945v59.147c-0.111 4.161 0.689 8.294 2.344 12.111 1.46 3.179 3.592 6.001 6.251 8.265 2.464 2.289 5.357 4.059 8.511 5.209 3.083 1.135 6.339 1.721 9.622 1.736 3.457-0.008 6.762-0.644 9.812-1.8l-0.192 0.064c3.366-1.244 6.261-3.011 8.743-5.232l-0.026 0.023c2.571-2.306 4.642-5.12 6.085-8.265 1.655-3.816 2.456-7.95 2.344-12.111v-59.147c0.003-0.166 0.005-0.362 0.005-0.559 0-4.116-0.864-8.030-2.422-11.571l0.072 0.184c-1.505-3.374-3.557-6.243-6.073-8.628l-0.012-0.011zM669.111 813.908c0.025 0.272 0.039 0.589 0.039 0.909 0 1.342-0.248 2.625-0.701 3.808l0.025-0.073c-0.585 1.535-1.46 2.841-2.567 3.909l-0.003 0.003c-2.037 1.718-4.69 2.762-7.587 2.763v0c-2.773 0-5.456-0.978-7.586-2.763-1.111-1.070-1.986-2.377-2.545-3.84l-0.024-0.072c-0.428-1.107-0.677-2.389-0.677-3.728 0-0.322 0.014-0.641 0.043-0.956l-0.003 0.041v-59.147c-0.025-0.274-0.040-0.593-0.040-0.916 0-1.339 0.248-2.621 0.701-3.801l-0.025 0.073c0.584-1.535 1.459-2.842 2.566-3.909l0.003-0.003c2.129-1.785 4.813-2.763 7.586-2.763 2.897 0.001 5.551 1.046 7.605 2.778l-0.018-0.015c1.11 1.071 1.985 2.377 2.545 3.84l0.024 0.073c0.428 1.109 0.676 2.393 0.676 3.735 0 0.32-0.014 0.637-0.042 0.949l0.003-0.040v59.147zM802.415 840.32v-111.969h-15.501l-20.353 59.27h-0.288l-20.519-59.27h-15.337v111.969h15.996v-68.116h0.288l15.666 48.152h7.977l15.789-48.152h0.288v68.116h15.996zM893.289 736.202c-2.415-2.704-5.454-4.8-8.893-6.068l-0.154-0.050c-3.279-1.104-7.055-1.741-10.98-1.741-0.216 0-0.431 0.002-0.646 0.006h-23.735v111.97h15.953v-43.73h8.225c4.977 0.226 9.93-0.827 14.391-3.059 3.626-2.014 6.651-4.969 8.758-8.556 1.845-2.978 3.088-6.294 3.659-9.754 0.629-4.213 0.917-8.472 0.865-12.73 0.017-0.547 0.026-1.19 0.026-1.836 0-5.020-0.579-9.905-1.675-14.591l0.085 0.432c-1.127-4.032-3.165-7.498-5.885-10.298l0.006 0.006zM885.064 770.342c-0.074 2.137-0.613 4.131-1.516 5.909l0.037-0.080c-0.924 1.722-2.339 3.077-4.058 3.902l-0.054 0.023c-2.363 1.058-4.941 1.539-7.524 1.406h-7.279v-38.067h8.223c0.224-0.012 0.486-0.018 0.75-0.018 2.339 0 4.556 0.525 6.539 1.462l-0.093-0.040c1.649 0.96 2.939 2.377 3.719 4.077l0.023 0.056c0.873 1.967 1.347 4.089 1.399 6.242v7.439c0 2.604 0.164 5.291 0 7.688h-0.166zM968.862 728.352h-13.076l-24.67 111.969h15.953l4.688-24.056h21.751l4.688 24.056h15.955l-25.288-111.969zM954.14 801.013l7.854-40.588h0.288l7.813 40.588h-15.955zM1071.943 795.806h-0.288l-24.097-67.454h-15.336v111.969h15.953v-67.33h0.328l24.384 67.33h15.007v-111.969h-15.953v67.454zM1169.434 728.352l-12.829 44.515h-0.328l-12.829-44.515h-16.899l21.915 64.644v47.325h15.955v-47.325l21.915-64.644h-16.899zM536.381 871.936h7.69v21.576h5.221v-21.576h7.649v-4.423h-20.56v4.423zM601.018 867.513l-10.074 25.998h5.551l2.139-5.91h10.362l2.22 5.91h5.674l-10.321-25.998h-5.551zM600.196 883.22l3.537-9.63 3.535 9.63h-7.072zM664.916 883.925h6.004v3.348c-1.674 1.352-3.823 2.175-6.165 2.191h-0.004c-0.108 0.006-0.235 0.010-0.363 0.010-0.975 0-1.9-0.213-2.732-0.594l0.041 0.017c-0.983-0.45-1.806-1.099-2.446-1.9l-0.010-0.013c-1.219-1.733-1.947-3.887-1.947-6.211 0-0.199 0.005-0.398 0.016-0.595l-0.001 0.027c0-5.786 2.508-8.68 7.483-8.68 0.163-0.017 0.353-0.027 0.545-0.027 1.182 0 2.277 0.374 3.173 1.011l-0.017-0.011c1.079 0.757 1.851 1.879 2.18 3.16l5.14-0.991c-1.11-5.084-4.769-7.646-11.020-7.646-3.342-0.089-6.593 1.109-9.086 3.348-1.278 1.262-2.289 2.791-2.94 4.498l-0.029 0.087c-0.512 1.326-0.808 2.859-0.808 4.462 0 0.336 0.013 0.668 0.038 0.997l-0.003-0.044c-0.008 0.183-0.013 0.397-0.013 0.612 0 3.494 1.264 6.693 3.361 9.164l-0.017-0.020c1.242 1.28 2.749 2.296 4.433 2.959l0.085 0.030c1.34 0.532 2.893 0.84 4.518 0.84 0.292 0 0.583-0.010 0.87-0.030l-0.039 0.002c4.068 0.114 8.020-1.369 11.020-4.133v-10.25h-11.267v4.38zM730.167 867.513h-5.263v25.998h18.216v-4.423h-12.953v-21.576zM785.351 867.513h-5.263v25.998h5.263v-25.998zM839.296 884.874l-10.65-17.361h-5.099v25.998h4.892v-16.987l10.445 16.987h5.221v-25.998h-4.81v17.361zM888.065 882.062h12.953v-4.423h-12.953v-5.704h13.939v-4.423h-19.202v25.998h19.737v-4.423h-14.474v-7.027zM1006.317 877.765h-10.238v-10.251h-5.222v25.998h5.222v-11.366h10.238v11.366h5.222v-25.998h-5.222v10.251zM1055.373 882.062h12.993v-4.423h-12.993v-5.704h13.98v-4.423h-19.202v25.998h19.695v-4.423h-14.473v-7.027zM1121.903 882.064c4.522-0.702 6.825-3.1 6.825-7.233 0.028-0.221 0.044-0.477 0.044-0.736 0-0.908-0.194-1.77-0.544-2.548l0.016 0.039c-0.464-1.038-1.169-1.896-2.048-2.53l-0.018-0.013c-1.921-0.986-4.191-1.564-6.596-1.564-0.356 0-0.708 0.013-1.057 0.037l0.047-0.003h-11.019v25.998h5.222v-10.871h1.027c1.113-0.068 2.227 0.13 3.248 0.579 0.764 0.471 1.399 1.123 1.851 1.902l5.674 8.267h6.25l-3.166-5.084c-1.432-2.538-3.37-4.631-5.692-6.201l-0.064-0.041zM1116.638 878.468h-3.864v-6.531h4.111c0.33-0.028 0.713-0.044 1.101-0.044 1.503 0 2.949 0.243 4.301 0.691l-0.096-0.028c0.373 0.332 0.671 0.74 0.869 1.2l0.008 0.022c0.198 0.468 0.288 0.975 0.265 1.484-0.026 0.535-0.172 1.031-0.41 1.469l0.009-0.018c-0.247 0.455-0.58 0.833-0.979 1.126l-0.009 0.007c-1.301 0.413-2.797 0.652-4.349 0.652-0.337 0-0.67-0.011-1.001-0.033l0.045 0.002zM1172.064 882.062h12.953v-4.423h-12.953v-5.704h13.982v-4.423h-19.245v25.998h19.737v-4.423h-14.474v-7.027z"></path>
</svg>
