<!-- Generated by IcoMoon.io -->
<svg version="1.1" xmlns="http://www.w3.org/2000/svg" width="1809" height="1024" viewBox="0 0 1809 1024">
<title></title>
<g id="icomoon-ignore">
</g>
<path d="M621.332 837.997c0.285 0.007 0.554 0.064 0.802 0.163l-0.016-0.006c0.253 0.1 0.471 0.239 0.657 0.411l-0.001-0.001 3.722 3.558c-2.889 2.879-6.461 5.183-10.47 6.753-4.693 1.712-9.754 2.538-14.843 2.425-4.782 0.085-9.535-0.684-13.959-2.265-3.992-1.451-7.579-3.628-10.516-6.388-2.999-2.862-5.309-6.217-6.794-9.866-1.626-4.069-2.429-8.351-2.372-12.657-0.067-4.333 0.8-8.639 2.558-12.696 1.626-3.673 4.077-7.026 7.212-9.866 3.178-2.784 6.979-4.973 11.168-6.429 4.582-1.545 9.463-2.313 14.377-2.265 4.567-0.096 9.108 0.604 13.355 2.062 3.686 1.389 7.071 3.318 10.004 5.702l-3.116 3.801c-0.222 0.271-0.484 0.5-0.778 0.68l-0.013 0.008c-0.367 0.218-0.812 0.319-1.256 0.283-0.483-0.029-0.949-0.169-1.35-0.404l-1.674-1.012-2.326-1.294c-0.839-0.415-1.87-0.839-2.931-1.198l-0.187-0.055c-1.157-0.379-2.583-0.73-4.042-0.983l-0.192-0.028c-1.537-0.259-3.308-0.407-5.113-0.407-0.15 0-0.299 0.001-0.448 0.003h0.023c-3.54-0.039-7.052 0.538-10.33 1.698-3.057 1.073-5.816 2.7-8.096 4.77-2.319 2.203-4.108 4.789-5.258 7.603-1.309 3.219-1.956 6.613-1.906 10.027-0.056 3.468 0.589 6.917 1.906 10.191 1.137 2.789 2.891 5.359 5.166 7.561 2.132 2.053 4.772 3.657 7.724 4.692 3.036 1.094 6.298 1.644 9.585 1.616 0.164 0.002 0.358 0.004 0.551 0.004 1.807 0 3.587-0.119 5.332-0.348l-0.205 0.022c3.067-0.326 6.011-1.253 8.608-2.71 1.302-0.746 2.531-1.584 3.674-2.507 0.48-0.396 1.108-0.626 1.77-0.647zM728.82 820.118c0.058 4.291-0.794 8.552-2.512 12.575-1.517 3.647-3.905 6.975-7.009 9.762-3.104 2.789-6.852 4.973-10.998 6.41-9.11 3.019-19.181 3.019-28.291 0-4.12-1.459-7.844-3.649-10.935-6.429-3.103-2.838-5.509-6.193-7.074-9.865-3.352-8.144-3.352-17.046 0-25.189 1.589-3.674 3.992-7.040 7.074-9.907 3.116-2.691 6.839-4.797 10.935-6.185 9.098-3.074 19.191-3.074 28.291 0 4.134 1.459 7.873 3.647 10.981 6.429 3.063 2.809 5.451 6.122 7.026 9.743 1.724 4.048 2.575 8.339 2.512 12.655zM719.049 820.118c0.073-3.432-0.526-6.849-1.768-10.109-1.043-2.79-2.739-5.364-4.98-7.561-2.181-2.077-4.867-3.707-7.863-4.77-6.62-2.21-13.949-2.21-20.567 0-2.997 1.063-5.683 2.693-7.864 4.77-2.272 2.183-3.985 4.76-5.024 7.561-2.369 6.583-2.369 13.635 0 20.217 1.050 2.797 2.761 5.373 5.024 7.561 2.185 2.065 4.871 3.681 7.864 4.731 6.63 2.154 13.935 2.154 20.567 0 2.992-1.050 5.678-2.666 7.863-4.731 2.232-2.202 3.925-4.774 4.98-7.561 1.248-3.258 1.847-6.676 1.768-10.109zM802.154 830.715l0.976 2.265c0.374-0.809 0.698-1.538 1.072-2.265 0.355-0.759 0.758-1.502 1.208-2.224l23.779-37.557c0.464-0.647 0.884-1.050 1.348-1.172 0.487-0.133 1.046-0.21 1.623-0.21 0.116 0 0.232 0.003 0.347 0.009l-0.016-0.001h7.026v61.085h-8.329v-46.814c-0.021-0.314-0.033-0.681-0.033-1.051s0.012-0.737 0.036-1.101l-0.003 0.050-23.917 38.083c-0.304 0.57-0.79 1.053-1.399 1.389-0.611 0.338-1.321 0.514-2.045 0.51h-1.348c-0.725 0.009-1.437-0.166-2.048-0.503-0.613-0.338-1.097-0.823-1.396-1.396l-24.615-38.325v49.038h-8.050v-60.964h7.026c0.66-0.034 1.323 0.034 1.954 0.201 0.579 0.249 1.038 0.664 1.304 1.172l24.289 37.598c0.478 0.695 0.882 1.425 1.21 2.183zM891.636 827.68v22.881h-9.306v-61.003h20.753c3.917-0.065 7.823 0.384 11.587 1.333 3.012 0.742 5.804 2.038 8.189 3.801 2.067 1.652 3.661 3.7 4.654 5.984 1.097 2.488 1.635 5.137 1.582 7.801 0.041 2.676-0.544 5.33-1.722 7.803-1.12 2.34-2.838 4.429-5.026 6.105-2.388 1.835-5.193 3.214-8.235 4.041-3.623 1.007-7.412 1.485-11.215 1.415l-11.261-0.16zM891.636 821.13h11.261c2.446 0.029 4.881-0.285 7.212-0.928 1.923-0.563 3.695-1.457 5.21-2.628 1.399-1.12 2.481-2.502 3.164-4.043 0.763-1.63 1.142-3.374 1.118-5.134 0.108-1.696-0.21-3.391-0.934-4.97-0.724-1.577-1.835-3-3.255-4.166-3.555-2.412-8.020-3.581-12.517-3.275h-11.261v25.144zM1016.714 850.644h-7.352c-0.737 0.024-1.463-0.176-2.048-0.567-0.527-0.381-0.942-0.865-1.21-1.415l-6.328-14.758h-31.78l-6.562 14.758c-0.241 0.539-0.642 1.014-1.162 1.376-0.592 0.413-1.335 0.628-2.094 0.606h-7.352l27.919-61.092h9.679l28.291 61.092zM970.648 827.962h26.243l-11.075-24.866c-0.743-1.582-1.456-3.488-2.024-5.456l-0.070-0.285-1.070 3.195c-0.326 0.969-0.698 1.86-1.024 2.587l-10.981 24.825zM1056.916 789.837c0.556 0.265 1.034 0.638 1.396 1.091l40.714 46.051v-47.425h8.33v61.090h-4.654c-0.66 0.017-1.316-0.108-1.908-0.364-0.575-0.292-1.080-0.676-1.488-1.132l-40.67-46.010c0.022 0.314 0.035 0.681 0.035 1.051s-0.013 0.737-0.037 1.1l0.003-0.049v45.402h-8.329v-61.090h4.932c0.575-0.014 1.147 0.082 1.676 0.283zM1175.943 826.348v24.259h-9.306v-24.259l-25.731-36.791h8.329c0.717-0.038 1.427 0.148 2 0.524 0.507 0.393 0.932 0.858 1.258 1.376l16.099 23.733c0.652 1.010 1.21 1.94 1.676 2.83 0.464 0.889 0.836 1.739 1.162 2.587l1.21-2.628c0.452-0.961 0.981-1.893 1.582-2.789l15.869-23.895c0.333-0.476 0.741-0.911 1.208-1.294 0.553-0.418 1.27-0.637 2.002-0.606h8.422l-25.779 36.953zM797.546 687.037c4.048 0.445 8.143 0.809 12.285 1.133 62.785-24.404 115.9-64.345 152.704-114.83 36.803-50.487 55.663-109.278 54.223-169.025l-69.192-60.119c14.068 63.613 7.487 129.372-19.007 189.92s-71.857 113.497-131.012 152.921z"></path>
<path d="M772.837 684.242l1.862 0.323c63.213-39.284 111.408-94.141 138.351-157.479s31.398-132.243 12.785-197.803l-98.555-85.627c39.863 70.385 55.909 149.154 46.271 227.149s-44.563 152.009-100.714 213.437zM1107.075 474.906c-16.744 65.649-57.409 124.856-115.956 168.83-17.099 12.913-35.543 24.417-55.095 34.364 47.676-12.175 91.496-33.7 128.082-62.915 36.588-29.216 64.963-65.341 82.941-105.591l-39.972-34.688z"></path>
<path d="M1091.396 465.239l-56.907-49.446c-1.089 56.373-19.535 111.464-53.42 159.548-33.886 48.082-81.975 87.404-139.269 113.874h0.28c12.768-0.003 25.525-0.666 38.202-1.981 53.545-18.988 100.847-49.198 137.684-87.934 36.838-38.736 62.065-84.792 73.431-134.060zM781.076 207.546l-67.891-59.067c-60.691 20.377-112.887 56.198-149.758 102.776-36.873 46.578-56.701 101.743-56.89 158.275 0.229 62.466 24.426 123.081 68.767 172.252 44.339 49.171 106.286 84.091 176.038 99.229 62.268-65.911 98.722-147.359 104.069-232.503 5.349-85.146-20.692-169.556-74.334-240.963zM1248.254 456.146c-0.246-74.112-34.241-145.126-94.556-197.531-60.317-52.405-142.053-81.94-227.352-82.154-39.415-0.036-78.496 6.284-115.258 18.637l415.667 361.149c14.234-31.923 21.523-65.865 21.499-100.101z"></path>
</svg>
