<!-- Generated by IcoMoon.io -->
<svg version="1.1" xmlns="http://www.w3.org/2000/svg" width="1809" height="1024" viewBox="0 0 1809 1024">
<title></title>
<g id="icomoon-ignore">
</g>
<path d="M911.787 467.767c-7.562-10.066-11.18-21.963-10.32-33.939v-49.207c0-15.084 3.42-26.547 10.262-34.389 6.84-7.842 18.592-11.747 35.251-11.713 15.655 0 26.767 3.337 33.338 10.011 7.168 8.516 10.655 18.93 9.856 29.433v11.564h-28.003v-11.715c0.013-0.457 0.020-0.996 0.020-1.535 0-3.506-0.303-6.942-0.883-10.283l0.051 0.356c-0.403-2.596-1.812-4.995-4-6.808-2.876-1.954-6.497-2.901-10.146-2.654-3.837-0.247-7.642 0.753-10.668 2.804-2.439 2.009-4.065 4.64-4.639 7.508-0.804 4.017-1.172 8.090-1.101 12.165v59.718c-0.442 5.762 0.794 11.527 3.594 16.77 1.393 1.773 3.326 3.18 5.589 4.064 2.261 0.884 4.762 1.21 7.224 0.942 3.587 0.254 7.148-0.717 9.914-2.703 2.282-1.956 3.75-4.507 4.175-7.258 0.654-3.961 0.945-7.962 0.87-11.964v-12.114h28.003v11.063c0.787 10.95-2.615 21.818-9.682 30.935-6.436 7.31-17.394 10.964-33.512 10.964s-28.295-3.905-35.193-12.015zM1028.384 468.268c-7.072-7.66-10.609-18.823-10.609-33.589v-51.76c0-14.616 3.536-25.679 10.609-33.188s18.901-11.247 35.483-11.213c16.466 0 28.235 3.738 35.309 11.213 7.072 7.509 10.668 18.572 10.668 33.188v51.76c0 14.616-3.596 25.829-10.784 33.538-7.19 7.709-18.901 11.564-35.193 11.564s-28.351-3.905-35.483-11.513zM1076.913 455.854c2.533-4.797 3.686-10.052 3.362-15.317v-63.374c0.326-5.163-0.809-10.317-3.304-15.017-1.422-1.811-3.403-3.241-5.721-4.127-2.316-0.884-4.874-1.19-7.383-0.879-2.516-0.302-5.079 0.005-7.404 0.889s-4.318 2.309-5.758 4.116c-2.548 4.687-3.705 9.847-3.362 15.017v63.674c-0.352 5.267 0.802 10.527 3.362 15.317 1.633 1.615 3.647 2.908 5.907 3.796 2.261 0.886 4.716 1.345 7.197 1.345 2.483 0 4.937-0.459 7.197-1.345s4.273-2.181 5.907-3.796v-0.3zM1143.526 340.029h30.15l22.67 95.498 23.192-95.498h29.338l2.958 137.842h-21.685l-2.319-95.799-22.38 95.799h-17.394l-23.192-96.15-2.145 96.15h-21.915l2.724-137.842zM1285.637 340.029h46.962c27.056 0 40.585 13.046 40.585 39.141 0 24.992-14.244 37.472-42.73 37.437h-16.002v61.264h-28.989l0.174-137.842zM1325.757 398.94c2.864 0.314 5.774 0.087 8.527-0.666 2.753-0.751 5.284-2.010 7.417-3.688 3.325-4.656 4.791-10.124 4.175-15.567 0.152-4.205-0.316-8.41-1.391-12.513-0.413-1.37-1.138-2.656-2.135-3.782-0.995-1.126-2.241-2.068-3.663-2.775-4.024-1.666-8.474-2.423-12.93-2.202h-11.247v41.192h11.247zM1414.987 340.029h31.135l31.947 137.842h-27.018l-6.32-31.783h-27.773l-6.492 31.783h-27.424l31.945-137.842zM1441.599 430.123l-10.841-57.859-10.842 57.859h21.683zM1503.869 340.029h20.292l38.847 78.631v-78.631h24.061v137.842h-19.308l-39.078-82.086v82.086h-24.873l0.058-137.842zM1643.426 425.315l-32.295-85.093h27.192l19.714 54.659 18.495-54.659h26.612l-31.889 85.093v52.557h-27.829v-52.557zM956.547 538.139v7.209h-23.654v56.011h-9.916v-56.011h-23.77v-7.209h57.341zM1030.702 601.364h-7.654c-0.777 0.041-1.543-0.172-2.145-0.601-0.579-0.367-1.021-0.87-1.275-1.451l-6.842-15.017h-32.816l-6.842 15.017c-0.195 0.628-0.551 1.208-1.044 1.702-0.606 0.418-1.369 0.631-2.144 0.601h-7.654l28.989-63.217h10.090l29.338 62.966zM982.694 577.889h27.368l-11.597-25.726c-0.74-1.617-1.47-3.595-2.064-5.631l-0.081-0.326c-0.406 1.201-0.754 2.352-1.101 3.354l-1.044 2.652-11.481 25.677zM1080.682 595.156c1.814 0.082 3.633 0.082 5.449 0 1.567-0.14 3.118-0.391 4.639-0.751 1.42-0.302 2.814-0.686 4.175-1.152 1.275-0.451 2.551-1.002 3.884-1.551v-14.218h-11.597c-0.038 0.002-0.081 0.003-0.126 0.003-0.256 0-0.503-0.041-0.734-0.117l0.017 0.005c-0.278-0.089-0.518-0.222-0.726-0.394l0.004 0.003c-0.189-0.142-0.341-0.319-0.44-0.519-0.088-0.168-0.139-0.367-0.139-0.578 0-0.019 0-0.039 0.001-0.058v0.003-4.855h22.496v24.23c-1.631 1.026-3.535 2.031-5.516 2.894l-0.283 0.11c-2.067 0.881-4.221 1.601-6.434 2.152-2.372 0.602-4.796 1.038-7.248 1.302-2.504 0.254-5.412 0.399-8.354 0.399-0.039 0-0.078 0-0.117 0h0.006c-5.001 0.038-9.962-0.761-14.611-2.352-4.34-1.507-8.284-3.755-11.595-6.608-3.229-2.883-5.77-6.284-7.48-10.011-1.826-4.192-2.732-8.639-2.666-13.116-0.061-4.506 0.823-8.984 2.608-13.216 1.667-3.746 4.214-7.156 7.48-10.011 3.308-2.845 7.253-5.076 11.595-6.559 4.965-1.613 10.235-2.41 15.539-2.353 2.698-0.002 5.393 0.183 8.059 0.551 2.357 0.331 4.668 0.869 6.9 1.603 2.028 0.657 3.971 1.497 5.798 2.502 1.777 0.988 3.463 2.092 5.043 3.304l-2.782 3.905c-0.218 0.357-0.543 0.657-0.94 0.867-0.398 0.212-0.855 0.328-1.321 0.335-0.642-0.017-1.265-0.191-1.797-0.5-0.87-0.401-1.799-0.901-2.842-1.502-1.089-0.604-2.372-1.179-3.704-1.647l-0.18-0.055c-1.477-0.535-3.269-1.021-5.109-1.368l-0.226-0.035c-2.101-0.351-4.522-0.551-6.99-0.551-0.131 0-0.262 0.001-0.393 0.002h0.020c-3.825-0.038-7.624 0.558-11.191 1.751-3.226 1.118-6.134 2.826-8.523 5.006-2.403 2.273-4.238 4.949-5.391 7.861-2.591 6.845-2.591 14.227 0 21.074 1.268 2.973 3.244 5.685 5.798 7.96 2.377 2.169 5.263 3.876 8.465 5.006 3.686 1.094 7.595 1.519 11.481 1.253zM1173.1 594.152h31.657v7.207h-41.341v-63.22h9.916l-0.232 56.013zM1237.688 601.359h-9.916v-63.22h9.916v63.22zM1274.563 538.44c0.589 0.29 1.103 0.683 1.507 1.152l42.382 47.655c-0.027-0.337-0.042-0.73-0.042-1.126s0.015-0.789 0.045-1.178l-0.003 0.052v-47.104h8.639v63.474h-4.985c-0.739 0.051-1.48-0.070-2.145-0.352-0.602-0.314-1.133-0.722-1.567-1.201l-42.324-47.606v49.159h-8.291v-63.225h5.161c0.584 0.001 1.141 0.111 1.654 0.311l-0.031-0.011zM1400.088 538.139v6.958h-35.135v20.874h28.467v6.707h-28.467v21.574h35.135v6.958h-45.339v-63.072h45.339zM361.161 147.721l440.235 107.917v378.163l-440.235-107.868v-378.213zM332.925 115.485v428.818l496.65 121.783v-428.768l-496.65-121.833z"></path>
<path d="M599.107 865.147l-496.707-121.885v-428.773l496.707 121.836v428.822z"></path>
<path d="M341.158 142.865l434.495 106.564-184.779 159.572-434.553-106.615 184.837-159.521zM332.925 115.485l-230.525 199.014 496.707 121.83 230.467-199.013-496.649-121.832zM627.055 841.025l202.518-174.887-202.518-49.702v224.589z"></path>
</svg>
