<!-- Generated by IcoMoon.io -->
<svg version="1.1" xmlns="http://www.w3.org/2000/svg" width="1809" height="1024" viewBox="0 0 1809 1024">
<title></title>
<g id="icomoon-ignore">
</g>
<path d="M412.095 360.154h-0.049c-40.926 0-74.103 29.484-74.103 65.855v0.043c0 36.371 33.178 65.855 74.103 65.855h0.049c40.926 0 74.103-29.484 74.103-65.855v-0.043c0-36.371-33.178-65.855-74.103-65.855zM959.061 339.103c-0.116-50.517-22.745-98.937-62.935-134.661-40.19-35.726-94.669-55.848-151.513-55.962-56.861 0.092-111.363 20.203-151.574 55.932-40.212 35.727-62.855 84.159-62.971 134.692v278.576s428.945-42.457 428.993-278.533v-0.043zM187.733 709.111c0.102 35.151 15.857 68.835 43.82 93.694s65.862 38.871 105.414 38.975c39.543-0.104 77.435-14.111 105.395-38.96 27.962-24.849 43.723-58.523 43.839-93.667v-193.838s-298.469 29.565-298.469 193.795zM336.968 743.84c-7.729 0-15.285-2.036-21.712-5.852s-11.435-9.24-14.392-15.587c-2.958-6.345-3.732-13.329-2.224-20.065 1.507-6.738 5.229-12.926 10.694-17.783s12.43-8.165 20.011-9.504c7.579-1.34 15.437-0.652 22.579 1.976s13.244 7.081 17.538 12.791 6.586 12.426 6.586 19.296c0.019 4.57-0.978 9.102-2.932 13.331-1.956 4.227-4.832 8.073-8.462 11.31-3.632 3.239-7.946 5.809-12.698 7.562-4.75 1.754-9.844 2.657-14.988 2.657v-0.131zM638.595 724.714h-28.8v29.751h-15v-72.8h47.401v12.15h-32.401v18.801h28.8v12.099zM710.695 719.715c0 7.166-1.266 13.45-3.799 18.85s-6.168 9.566-10.9 12.5c-4.7 2.934-10.1 4.4-16.2 4.4-6.033 0-11.418-1.451-16.15-4.35s-8.4-7.033-10.999-12.399c-2.601-5.4-3.917-11.6-3.951-18.601v-3.599c0-7.166 1.283-13.467 3.85-18.9 2.601-5.468 6.25-9.651 10.95-12.551 4.734-2.934 10.134-4.4 16.2-4.4s11.45 1.466 16.15 4.4c4.734 2.9 8.383 7.083 10.95 12.551 2.601 5.432 3.9 11.716 3.9 18.848v3.251zM695.496 716.414c0-7.632-1.367-13.433-4.099-17.399-2.734-3.966-6.634-5.949-11.701-5.949-5.033 0-8.916 1.966-11.65 5.9-2.732 3.9-4.116 9.632-4.151 17.2v3.55c0 7.433 1.367 13.199 4.101 17.299 2.732 4.101 6.666 6.151 11.8 6.151 5.033 0 8.9-1.966 11.6-5.9 2.7-3.966 4.067-9.733 4.099-17.3v-3.55zM759.345 735.365c0-2.833-1-5.001-3-6.501-1.999-1.533-5.6-3.133-10.8-4.799-5.2-1.702-9.317-3.367-12.349-5.001-8.267-4.466-12.401-10.484-12.401-18.050 0-3.934 1.101-7.434 3.301-10.501 2.232-3.099 5.417-5.516 9.551-7.25 4.166-1.732 8.832-2.599 14-2.599 5.2 0 9.832 0.951 13.899 2.85 4.067 1.867 7.217 4.516 9.45 7.95 2.266 3.434 3.401 7.334 3.401 11.699h-15.002c0-3.333-1.050-5.915-3.149-7.75-2.101-1.865-5.050-2.799-8.851-2.799-3.666 0-6.516 0.783-8.55 2.35-2.033 1.533-3.050 3.567-3.050 6.1 0 2.367 1.184 4.35 3.55 5.949 2.401 1.601 5.917 3.101 10.551 4.5 8.533 2.567 14.751 5.75 18.65 9.551 3.9 3.799 5.85 8.533 5.85 14.199 0 6.299-2.384 11.25-7.151 14.85-4.767 3.567-11.184 5.35-19.249 5.35-5.6 0-10.701-1.017-15.3-3.050-4.599-2.067-8.117-4.883-10.551-8.45-2.4-3.567-3.599-7.7-3.599-12.401h15.049c0 8.033 4.801 12.051 14.401 12.051 3.567 0 6.351-0.717 8.349-2.15 2-1.466 3-3.5 3-6.1zM839.395 693.815h-22.299v60.65h-15v-60.65h-22.001v-12.15h59.3v12.15zM891.796 722.915h-28.8v19.5h33.799v12.049h-48.799v-72.8h48.7v12.15h-33.7v17.35h28.8v11.75zM932.547 727.815h-11.95v26.65h-15v-72.8h27.049c8.6 0 15.234 1.917 19.9 5.75 4.668 3.833 7.001 9.25 7.001 16.249 0 4.968-1.084 9.117-3.249 12.45-2.133 3.301-5.385 5.934-9.75 7.9l15.749 29.751v0.7h-16.099l-13.65-26.65zM920.596 715.665h12.099c3.767 0 6.683-0.951 8.75-2.85 2.067-1.934 3.101-4.584 3.101-7.95 0-3.434-0.983-6.134-2.951-8.102-1.934-1.966-4.917-2.949-8.95-2.949h-12.049v21.85zM1011.495 728.815v25.649h-15v-72.8h28.401c5.466 0 10.267 1 14.399 3 4.168 2 7.368 4.849 9.6 8.549 2.234 3.668 3.35 7.851 3.35 12.551 0 7.134-2.449 12.766-7.349 16.899-4.867 4.101-11.617 6.151-20.251 6.151h-13.15zM1011.495 716.665h13.401c3.966 0 6.984-0.934 9.050-2.801 2.099-1.867 3.149-4.533 3.149-7.999 0-3.567-1.050-6.451-3.149-8.651-2.101-2.2-5.001-3.333-8.701-3.4h-13.751v22.851zM1106.396 722.915h-28.8v19.5h33.799v12.049h-48.799v-72.8h48.7v12.15h-33.7v17.35h28.8v11.75zM1175.996 693.815h-22.299v60.65h-15v-60.65h-22.001v-12.15h59.3v12.15zM1228.396 722.915h-28.8v19.5h33.801v12.049h-48.8v-72.8h48.7v12.15h-33.7v17.35h28.8v11.75zM1269.146 727.815h-11.95v26.65h-15v-72.8h27.051c8.6 0 15.234 1.917 19.9 5.75s6.999 9.25 6.999 16.249c0 4.968-1.082 9.117-3.249 12.45-2.133 3.301-5.383 5.934-9.75 7.9l15.751 29.751v0.7h-16.101l-13.65-26.65zM1257.196 715.665h12.1c3.767 0 6.683-0.951 8.75-2.85 2.067-1.934 3.099-4.584 3.099-7.95 0-3.434-0.983-6.134-2.949-8.102-1.934-1.966-4.917-2.949-8.95-2.949h-12.051v21.85zM1345.347 735.365c0-2.833-1-5.001-3-6.501-2-1.533-5.6-3.133-10.8-4.799-5.2-1.702-9.317-3.367-12.351-5.001-8.265-4.466-12.399-10.484-12.399-18.050 0-3.934 1.099-7.434 3.299-10.501 2.234-3.099 5.417-5.516 9.551-7.25 4.166-1.732 8.834-2.599 14-2.599 5.2 0 9.834 0.951 13.901 2.85 4.065 1.867 7.216 4.516 9.45 7.95 2.266 3.434 3.4 7.334 3.4 11.699h-15c0-3.333-1.050-5.915-3.151-7.75-2.099-1.865-5.050-2.799-8.849-2.799-3.668 0-6.518 0.783-8.55 2.35-2.034 1.533-3.050 3.567-3.050 6.1 0 2.367 1.183 4.35 3.55 5.949 2.4 1.601 5.917 3.101 10.549 4.5 8.533 2.567 14.751 5.75 18.65 9.551 3.9 3.799 5.85 8.533 5.85 14.199 0 6.299-2.384 11.25-7.151 14.85-4.765 3.567-11.182 5.35-19.249 5.35-5.6 0-10.699-1.017-15.3-3.050-4.599-2.067-8.117-4.883-10.549-8.45-2.401-3.567-3.601-7.7-3.601-12.401h15.051c0 8.033 4.799 12.051 14.399 12.051 3.567 0 6.351-0.717 8.351-2.15 2-1.466 3-3.5 3-6.1z"></path>
</svg>
