<svg aria-hidden="true" style="position: absolute; width: 0; height: 0; overflow: hidden;" version="1.1" xmlns="http://www.w3.org/2000/svg" xmlns:xlink="http://www.w3.org/1999/xlink">
<defs>
<symbol id="icon-j" viewBox="0 0 32 32">
<path d="M5.315 9.274l11.185 9.726 11.187-9.728c0.194 0.184 0.313 0.445 0.313 0.735v11.986c0 0.557-0.449 1.007-1.003 1.007h-20.994c-0.564 0-1.003-0.451-1.003-1.007v-11.986c0-0.289 0.121-0.549 0.315-0.733zM6.004 8c-1.107 0-2.004 0.895-2.004 1.994v12.012c0 1.101 0.89 1.994 2.004 1.994h20.993c1.107 0 2.004-0.895 2.004-1.994v-12.012c0-1.101-0.89-1.994-2.004-1.994h-20.993zM16.5 17.7l-10-8.7h20l-10 8.7z"></path>
</symbol>
<symbol id="icon-instagram" viewBox="0 0 32 32">
<path d="M25.481 12.086c-0.045-1.010-0.208-1.703-0.441-2.305-0.241-0.638-0.612-1.21-1.099-1.685-0.475-0.483-1.050-0.858-1.681-1.095-0.605-0.234-1.295-0.397-2.305-0.442-1.017-0.048-1.34-0.059-3.919-0.059s-2.903 0.011-3.916 0.056c-1.010 0.045-1.703 0.208-2.305 0.442-0.638 0.241-1.21 0.612-1.685 1.099-0.483 0.475-0.857 1.050-1.095 1.681-0.234 0.605-0.397 1.295-0.442 2.305-0.048 1.017-0.059 1.34-0.059 3.919s0.011 2.903 0.056 3.916c0.045 1.010 0.208 1.703 0.442 2.305 0.241 0.638 0.616 1.21 1.099 1.685 0.475 0.483 1.050 0.858 1.681 1.095 0.605 0.234 1.295 0.397 2.305 0.441 1.013 0.045 1.336 0.056 3.916 0.056s2.903-0.011 3.916-0.056c1.010-0.045 1.703-0.208 2.305-0.441 1.277-0.494 2.286-1.503 2.78-2.78 0.233-0.605 0.397-1.295 0.442-2.305 0.045-1.014 0.056-1.337 0.056-3.916s-0.004-2.903-0.048-3.916zM23.77 19.843c-0.041 0.928-0.197 1.429-0.327 1.763-0.319 0.828-0.976 1.485-1.804 1.804-0.334 0.13-0.839 0.286-1.763 0.326-1.002 0.045-1.303 0.056-3.838 0.056s-2.84-0.011-3.838-0.056c-0.928-0.041-1.429-0.197-1.763-0.326-0.412-0.152-0.787-0.394-1.091-0.709-0.315-0.308-0.557-0.679-0.709-1.091-0.13-0.334-0.286-0.839-0.326-1.763-0.045-1.002-0.056-1.303-0.056-3.838s0.011-2.84 0.056-3.838c0.041-0.928 0.197-1.429 0.326-1.763 0.152-0.412 0.394-0.787 0.713-1.091 0.308-0.315 0.679-0.557 1.091-0.709 0.334-0.13 0.839-0.286 1.763-0.327 1.002-0.045 1.303-0.056 3.838-0.056 2.539 0 2.839 0.011 3.838 0.056 0.928 0.041 1.429 0.197 1.763 0.327 0.412 0.152 0.787 0.394 1.091 0.709 0.315 0.308 0.557 0.679 0.709 1.091 0.13 0.334 0.286 0.839 0.327 1.763 0.045 1.002 0.056 1.303 0.056 3.838s-0.011 2.832-0.056 3.834z"></path>
<path d="M16.035 11.121c-2.695 0-4.881 2.186-4.881 4.881s2.186 4.881 4.881 4.881c2.695 0 4.881-2.186 4.881-4.881s-2.186-4.881-4.881-4.881zM16.035 19.168c-1.748 0-3.166-1.418-3.166-3.166s1.418-3.166 3.166-3.166c1.749 0 3.166 1.418 3.166 3.166s-1.418 3.166-3.166 3.166zM22.249 10.928c0 0.629-0.51 1.139-1.139 1.139s-1.139-0.51-1.139-1.139 0.51-1.139 1.139-1.139 1.139 0.51 1.139 1.139z"></path>
</symbol>
</defs>
</svg>
